<?xml version="1.0" encoding="UTF-8" standalone="no"?>
<svg
   xmlns:dc="http://purl.org/dc/elements/1.1/"
   xmlns:cc="http://creativecommons.org/ns#"
   xmlns:rdf="http://www.w3.org/1999/02/22-rdf-syntax-ns#"
   xmlns:svg="http://www.w3.org/2000/svg"
   xmlns="http://www.w3.org/2000/svg"
   height="61.058655"
   width="31.180405"
   id="svg2"
   xml:space="preserve"
   enable-background="new 0 0 50 50"
   viewBox="0 0 31.180403 61.058655"
   y="0px"
   x="0px"
   version="1.1"><metadata
     id="metadata18"><rdf:RDF><cc:Work
         rdf:about=""><dc:format>image/svg+xml</dc:format><dc:type
           rdf:resource="http://purl.org/dc/dcmitype/StillImage" /><dc:title></dc:title></cc:Work></rdf:RDF></metadata><defs
     id="defs16" /><g
     style="fill:#ffffff;fill-opacity:1"
     transform="matrix(0.88946891,-0.23148865,0.23148865,0.88946891,-12.713231,13.910344)"
     id="g4"><path
       style="fill:#ffffff;fill-opacity:1"
       id="path6"
       d="m 11.166,42.715 1.965,-1.512 15.896,-24.488 c -3.761,2.984 -17.861,26 -17.861,26 z" /><path
       style="fill:#ffffff;fill-opacity:1"
       id="path8"
       d="M 33.132,4.071 C 32.792,4.309 32.464,4.547 32.2,4.858 29.893,7.57 28.811,12.39 28.811,12.39 28.44,11.227 29.153,8.793 29.836,6.911 c -4.781,4.31 -9.017,8.217 -11.189,12.563 -1.464,2.929 -1.776,6.33 -1.776,6.33 l -0.135,-3.39 C 9.536,34.259 9.923,43.17 9.923,43.17 l -2.822,6.064 2.067,-2.133 1.375,-2.382 1.291,-1.929 C 23.346,36.862 31.22,24.41 31.22,24.41 l -4.421,0.156 C 34.417,21.795 40.855,8.288 40.855,8.288 47.812,-4.706 34.933,2.808 33.132,4.071 Z m -20.269,37.108 -0.736,-0.49 c 0,0 13.139,-20.989 16.899,-23.974 L 12.863,41.179 Z" /></g></svg>