<?xml version="1.0" encoding="UTF-8" standalone="no"?>
<svg
   xmlns:dc="http://purl.org/dc/elements/1.1/"
   xmlns:cc="http://creativecommons.org/ns#"
   xmlns:rdf="http://www.w3.org/1999/02/22-rdf-syntax-ns#"
   xmlns:svg="http://www.w3.org/2000/svg"
   xmlns="http://www.w3.org/2000/svg"
   xmlns:sodipodi="http://sodipodi.sourceforge.net/DTD/sodipodi-0.dtd"
   xmlns:inkscape="http://www.inkscape.org/namespaces/inkscape"
   version="1.1"
   x="0px"
   y="0px"
   viewBox="0 0 63.999997 64"
   enable-background="new 0 0 50 50"
   xml:space="preserve"
   id="svg2"
   inkscape:version="0.91 r13725"
   sodipodi:docname="poets_logo_black.svg"
   width="64"
   height="64"
   inkscape:export-filename="C:\Users\ngt15\Desktop\POETS-logo-small.png"
   inkscape:export-xdpi="185.625"
   inkscape:export-ydpi="185.625"><metadata
     id="metadata18"><rdf:RDF><cc:Work
         rdf:about=""><dc:format>image/svg+xml</dc:format><dc:type
           rdf:resource="http://purl.org/dc/dcmitype/StillImage" /><dc:title /></cc:Work></rdf:RDF></metadata><defs
     id="defs16" /><sodipodi:namedview
     pagecolor="#ffffff"
     bordercolor="#666666"
     borderopacity="1"
     objecttolerance="10"
     gridtolerance="10"
     guidetolerance="10"
     inkscape:pageopacity="0"
     inkscape:pageshadow="2"
     inkscape:window-width="1858"
     inkscape:window-height="1177"
     id="namedview14"
     showgrid="false"
     fit-margin-top="0"
     fit-margin-left="0"
     fit-margin-right="0"
     fit-margin-bottom="0"
     inkscape:zoom="8"
     inkscape:cx="44.899547"
     inkscape:cy="41.371393"
     inkscape:window-x="1974"
     inkscape:window-y="-8"
     inkscape:window-maximized="1"
     inkscape:current-layer="svg2" /><g
     id="g4"
     transform="matrix(0.88946891,-0.23148865,0.23148865,0.88946891,3.6965649,15.381017)"
     style="fill:#000000;fill-opacity:1"><path
       d="m 11.166,42.715 1.965,-1.512 15.896,-24.488 c -3.761,2.984 -17.861,26 -17.861,26 z"
       id="path6"
       inkscape:connector-curvature="0"
       style="fill:#000000;fill-opacity:1" /><path
       d="M 33.132,4.071 C 32.792,4.309 32.464,4.547 32.2,4.858 29.893,7.57 28.811,12.39 28.811,12.39 28.44,11.227 29.153,8.793 29.836,6.911 c -4.781,4.31 -9.017,8.217 -11.189,12.563 -1.464,2.929 -1.776,6.33 -1.776,6.33 l -0.135,-3.39 C 9.536,34.259 9.923,43.17 9.923,43.17 l -2.822,6.064 2.067,-2.133 1.375,-2.382 1.291,-1.929 C 23.346,36.862 31.22,24.41 31.22,24.41 l -4.421,0.156 C 34.417,21.795 40.855,8.288 40.855,8.288 47.812,-4.706 34.933,2.808 33.132,4.071 Z m -20.269,37.108 -0.736,-0.49 c 0,0 13.139,-20.989 16.899,-23.974 L 12.863,41.179 Z"
       id="path8"
       inkscape:connector-curvature="0"
       style="fill:#000000;fill-opacity:1" /></g></svg>